PathFileType	4	(X/Y/Z)	T:\Spectrum_Optical_Capture\Spectrum_Demo_10_05_01_TRUECOMBAT\07_Smooth_Trc\TC_Jog_1.trc
DataRate	CameraRate	NumFrames	NumMarkers	Units	OrigDataRate	OrigDataStartFrame	OrigNumFrames
60.0	60.0	       6	46	mm	60.0	127	       504
Frame#	Time	HeadTop			ForeHead			LFrontHead			RFrontHead			TopSpine			Sternum			Scapula			LFShoulder			LShoulder			LBicep			LOuterElbow			LHand			LWristPinky			LWristThumb			RFShoulder			RShoulder			RBicep			ROuterElbow			RHand			RWristPinky			RWristThumb			MiddleBack			LowerBack			Root			Pelvis			LBackWaist			RBackWaist			LFrontWaist			RFrontWaist			Bellymarker			LThigh			LOuterKnee			LAnkle			LHeel			LOuterMeta			LToe			RThigh			ROuterKnee			RAnkle			RHeel			ROuterMeta			RToe			Floor1			Floor2			Floor3			Floor4			
		X1	Y1	Z1	X2	Y2	Z2	X3	Y3	Z3	X4	Y4	Z4	X5	Y5	Z5	X6	Y6	Z6	X7	Y7	Z7	X8	Y8	Z8	X9	Y9	Z9	X10	Y10	Z10	X11	Y11	Z11	X12	Y12	Z12	X13	Y13	Z13	X14	Y14	Z14	X15	Y15	Z15	X16	Y16	Z16	X17	Y17	Z17	X18	Y18	Z18	X19	Y19	Z19	X20	Y20	Z20	X21	Y21	Z21	X22	Y22	Z22	X23	Y23	Z23	X24	Y24	Z24	X25	Y25	Z25	X26	Y26	Z26	X27	Y27	Z27	X28	Y28	Z28	X29	Y29	Z29	X30	Y30	Z30	X31	Y31	Z31	X32	Y32	Z32	X33	Y33	Z33	X34	Y34	Z34	X35	Y35	Z35	X36	Y36	Z36	X37	Y37	Z37	X38	Y38	Z38	X39	Y39	Z39	X40	Y40	Z40	X41	Y41	Z41	X42	Y42	Z42	X43	Y43	Z43	X44	Y44	Z44	X45	Y45	Z45	X46	Y46	Z46	

127	2.100	-2624.65283	1550.73486	-2971.09082	-2557.75537	1424.69409	-2877.52759	-2527.57275	1423.13599	-2994.08276	-2672.33105	1426.03296	-2880.04272	-2744.74194	1290.04187	-3107.07422	-2632.85278	1026.95081	-2984.15430	-2888.52808	1176.82739	-3077.15430	-2572.04272	1143.13867	-3034.13623	-2541.07617	1252.24756	-3172.15112	-2545.78857	1084.26746	-3312.75269	-2638.04590	1051.44373	-3399.93335	-2542.81226	827.99420	-3324.86011	-2560.29102	718.70825	-3322.18555	-2486.84131	738.60883	-3246.13403	-2685.40039	1140.53613	-2928.37256	-2815.12891	1252.13281	-2909.25488	-2940.55054	1111.34839	-2920.22681	-2992.72168	956.79675	-2949.45947	-2778.48999	908.05701	-2832.08350	-2696.80005	843.34369	-2827.06543	-2638.90698	913.43268	-2784.67261	-2779.49268	1216.63379	-3144.36963	-2809.07153	1099.21704	-3179.30273	-2830.12915	991.21259	-3206.40063	-2689.90625	1010.95721	-3268.63354	-2716.25562	902.07141	-3295.29126	-2936.44995	891.57440	-3116.59570	-2618.39697	865.02954	-3200.32056	-2869.74487	850.48322	-2993.98779	-2675.98438	837.57843	-3013.93799	-2614.48169	617.46649	-3254.06958	-2586.07471	459.06070	-3182.56079	-2699.78442	105.98602	-3262.52661	-2816.47290	55.16961	-3292.25928	-2677.98853	19.28866	-3231.03882	-2660.42603	21.62819	-3103.13086	-2932.50830	593.14380	-3038.21094	-2981.70239	456.26483	-3121.21362	-3160.19531	229.92929	-3347.96875	-3163.39990	228.53964	-3476.30225	-3224.64282	112.27813	-3385.02637	-3145.07202	27.32072	-3360.05249	4200.65771	32.68067	-4240.70850	-3733.00122	-11.90635	-4191.17041	-3783.37671	-15.81604	4949.86035	4163.03174	21.28011	4904.55908	
128	2.117	-2607.29688	1546.74365	-2957.33350	-2541.00903	1421.25952	-2862.66260	-2510.24341	1418.82996	-2979.49146	-2655.00415	1422.55493	-2865.48047	-2727.44922	1285.01990	-3092.47681	-2616.90869	1021.36658	-2968.39258	-2871.95142	1172.60352	-3063.81372	-2555.92285	1137.13110	-3018.16895	-2522.96655	1244.12805	-3157.29199	-2525.02393	1070.72803	-3292.61426	-2614.38721	1033.96179	-3380.59497	-2518.34473	814.51105	-3295.21753	-2534.94312	705.60815	-3289.38525	-2463.00586	728.91913	-3212.93970	-2669.94043	1134.88892	-2913.45166	-2799.62500	1246.42676	-2894.43408	-2926.46924	1106.79724	-2908.01538	-2979.72339	954.03229	-2940.01831	-2771.91699	885.20227	-2820.66455	-2696.89917	814.72205	-2815.76489	-2634.18848	876.84833	-2769.31104	-2762.13721	1211.86365	-3130.56812	-2792.80566	1094.65759	-3165.36060	-2814.81396	986.78009	-3192.18994	-2673.71167	1004.88501	-3254.97437	-2701.82544	898.88562	-3281.27637	-2921.78955	886.05981	-3102.97681	-2603.60645	861.49664	-3186.99902	-2854.09521	845.62329	-2979.95215	-2661.44800	832.92010	-3000.49512	-2601.96655	612.85852	-3240.87720	-2575.52832	454.10217	-3170.94189	-2696.32983	106.69677	-3259.78027	-2815.21167	58.41716	-3292.27637	-2677.41846	19.70416	-3230.86523	-2660.21509	20.65796	-3102.71362	-2909.93164	587.50006	-3015.40234	-2952.23462	445.26065	-3090.48901	-3131.19312	240.80362	-3321.88892	-3132.37183	248.89450	-3448.85767	-3200.62524	130.80269	-3365.27856	-3127.36133	35.01228	-3344.38159	4200.51855	32.63911	-4240.78613	-3732.92212	-11.89695	-4191.10986	-3783.52466	-15.76340	4949.75879	4163.04248	21.30945	4904.53125	
129	2.133	-2589.83838	1543.44250	-2942.93408	-2524.44238	1418.20764	-2847.62451	-2493.26587	1415.05359	-2964.89404	-2637.67676	1419.68982	-2850.60327	-2710.21460	1281.09631	-3077.87939	-2601.31348	1016.85626	-2952.57178	-2855.55566	1169.44214	-3050.66797	-2540.56299	1132.02234	-3002.10059	-2504.64209	1236.87952	-3141.93555	-2503.66504	1057.53467	-3270.68945	-2589.62939	1016.44281	-3359.85693	-2492.68896	802.36365	-3262.40967	-2507.74146	694.07404	-3252.42822	-2438.04004	721.62909	-3175.87988	-2654.80078	1130.16357	-2898.54346	-2784.56836	1241.40210	-2879.62524	-2913.08765	1103.31531	-2896.40356	-2967.57275	952.62738	-2931.89990	-2769.13867	862.54156	-2810.56494	-2702.54492	786.09052	-2805.61548	-2635.87988	838.84479	-2754.31274	-2744.85400	1208.18506	-3116.80151	-2776.79297	1091.16650	-3151.68286	-2799.75806	983.21790	-3178.00439	-2657.99072	999.79822	-3241.31934	-2687.88110	896.01794	-3267.23706	-2907.27344	881.69086	-3089.23682	-2589.18872	858.67059	-3173.53589	-2838.91846	842.09546	-2965.68115	-2647.13818	829.20819	-2986.90723	-2589.94629	608.75458	-3228.50269	-2565.36987	449.47452	-3160.91309	-2693.09082	107.73930	-3257.62891	-2814.05127	62.07081	-3292.48779	-2676.64966	20.09014	-3230.57813	-2660.05591	19.99335	-3102.39697	-2887.46240	583.87396	-2991.59912	-2921.82959	436.62506	-3058.05273	-3099.37939	251.85147	-3292.93457	-3099.46631	267.62994	-3419.21533	-3171.54736	147.88857	-3340.47754	-3102.52197	45.84641	-3323.35938	4200.42041	32.59914	-4240.91406	-3732.90356	-11.89169	-4191.04541	-3783.59253	-15.66000	4949.69287	4162.92041	21.28339	4904.60352	
130	2.150	-2572.37061	1541.10046	-2927.77197	-2507.90332	1415.61548	-2832.46680	-2476.50562	1412.22632	-2950.13037	-2620.52954	1417.63464	-2835.36450	-2692.99902	1278.44458	-3063.12378	-2585.80054	1013.70465	-2936.57715	-2839.11890	1167.45764	-3037.61157	-2525.73169	1128.30981	-2985.91553	-2486.30322	1231.32458	-3126.01123	-2481.70361	1045.88550	-3247.07886	-2564.16650	1000.09875	-3337.47827	-2465.99438	793.28094	-3226.46533	-2478.99341	685.87677	-3211.06152	-2412.26538	718.62354	-3134.86255	-2639.81445	1126.73376	-2883.37500	-2769.91211	1237.47925	-2864.90771	-2900.16284	1101.48657	-2885.37695	-2956.65161	953.39636	-2924.95288	-2770.12402	842.42773	-2801.75342	-2712.90283	760.20770	-2796.95044	-2643.70728	803.40118	-2740.51709	-2727.62695	1205.78882	-3102.88379	-2760.72437	1088.88440	-3138.00366	-2784.72437	980.78668	-3163.71704	-2642.58472	996.27075	-3227.21387	-2674.02905	893.63794	-3253.11768	-2892.56177	878.80304	-3074.92969	-2574.69678	856.47931	-3159.62695	-2824.13013	840.19604	-2950.82910	-2632.59155	826.52203	-2972.94531	-2578.71167	605.25269	-3217.25537	-2556.07373	444.85342	-3152.60400	-2690.58740	108.91496	-3255.94336	-2813.19604	65.69540	-3292.55713	-2675.87573	20.47800	-3230.21484	-2660.03613	19.55170	-3102.24902	-2864.80127	582.74585	-2967.04126	-2890.83667	431.05862	-3024.50879	-3065.43042	262.04517	-3261.46533	-3065.36841	283.46179	-3387.79370	-3138.00757	161.91714	-3311.43091	-3070.47632	57.83166	-3297.36401	4200.39551	32.58463	-4241.02393	-3732.98706	-11.90274	-4190.98975	-3783.56958	-15.58052	4949.69824	4162.76416	21.22902	4904.75391	
131	2.167	-2555.01685	1539.94189	-2911.90210	-2491.26514	1413.78088	-2816.97217	-2459.80957	1410.70715	-2934.86108	-2603.54614	1416.54968	-2819.67896	-2675.79346	1277.20398	-3047.88696	-2570.07056	1012.04767	-2920.45581	-2822.52612	1166.82520	-3024.38794	-2510.97388	1126.31396	-2969.51660	-2468.11035	1228.12451	-3109.42603	-2459.34570	1036.90637	-3222.19580	-2538.41260	985.96271	-3313.32080	-2438.57642	788.80627	-3187.67065	-2449.00977	682.61743	-3165.33105	-2386.07324	721.68280	-3090.21924	-2624.92529	1124.76904	-2867.68848	-2755.47437	1234.92041	-2849.99634	-2887.60132	1101.96082	-2874.92065	-2947.38379	957.27289	-2919.10645	-2774.35767	827.27844	-2794.01929	-2726.15894	740.00513	-2789.54980	-2656.26416	774.64258	-2728.36401	-2710.44287	1204.80933	-3088.52808	-2744.37744	1087.91467	-3123.91577	-2769.48657	979.63123	-3149.08936	-2627.19971	994.59131	-3212.44849	-2660.20752	892.10864	-3238.74438	-2877.39429	877.54956	-3059.48828	-2559.93140	855.05042	-3145.43164	-2809.25537	839.90997	-2935.19214	-2617.49951	824.96552	-2958.66357	-2568.45947	602.70990	-3207.15039	-2547.96582	440.46509	-3145.91821	-2688.97461	109.99152	-3254.54614	-2812.54248	68.76860	-3291.70190	-2675.21338	20.86780	-3229.85449	-2660.12817	19.25892	-3102.27368	-2841.52002	584.31995	-2941.82544	-2859.58057	429.03177	-2990.31104	-3029.92871	270.36407	-3227.98438	-3030.33813	295.38333	-3354.80225	-3100.93433	171.91505	-3279.12085	-3032.15039	68.58965	-3266.94287	4200.43994	32.60797	-4241.08984	-3733.16187	-11.93876	-4190.95215	-3783.49023	-15.59297	4949.75732	4162.64697	21.18185	4904.93945	
132	2.183	-2537.87939	1540.17957	-2895.35083	-2474.48389	1413.24561	-2800.86523	-2443.16016	1410.70776	-2918.72998	-2586.64941	1416.69324	-2803.35181	-2658.68726	1277.62048	-3031.90918	-2553.98901	1012.00427	-2904.26855	-2805.75195	1167.81689	-3010.59790	-2495.79614	1126.26233	-2952.51392	-2450.12769	1227.64856	-3091.92773	-2436.87280	1031.41919	-3196.49780	-2512.67627	974.86652	-3287.49243	-2410.87036	789.98993	-3146.61621	-2418.28027	685.56262	-3116.02661	-2359.88745	732.00537	-3042.90991	-2610.17310	1124.34326	-2851.33374	-2741.03491	1233.95117	-2834.49365	-2875.33423	1105.42297	-2864.93579	-2939.80688	965.15143	-2914.28418	-2780.93286	819.10468	-2786.99463	-2740.47217	728.00208	-2782.98364	-2671.33008	755.51105	-2717.67822	-2693.25537	1205.37854	-3073.36426	-2727.60571	1088.38257	-3108.96411	-2753.84692	979.91504	-3133.76489	-2611.49634	994.72369	-3196.83203	-2646.41089	891.84167	-3223.94800	-2861.64526	878.02582	-3042.47095	-2544.88623	854.63428	-3131.34326	-2793.52563	841.13916	-2918.65967	-2601.60864	824.71405	-2944.21558	-2559.14819	601.42523	-3197.77441	-2541.18921	436.93225	-3140.51099	-2688.04663	110.88184	-3253.35620	-2811.85376	70.87955	-3289.34399	-2674.68457	21.27152	-3229.57056	-2660.27588	19.05976	-3102.38794	-2817.36792	588.60443	-2916.02832	-2828.23120	430.71198	-2955.74219	-2993.17627	275.98798	-3193.05029	-2994.52197	302.63177	-3320.63550	-3061.17065	177.41597	-3244.23779	-2988.90186	76.49699	-3232.31274	4200.52783	32.66227	-4241.11768	-3733.35229	-12.00055	-4190.95264	-3783.38184	-15.71917	4949.82813	4162.57715	21.15966	4905.10791	
